<svg preserveAspectRatio="xMidYMid meet" id="comp-keicw0ilsvgcontent" data-bbox="0 0 690 546" xmlns:xlink="http://www.w3.org/1999/xlink" xmlns="http://www.w3.org/2000/svg" viewBox="0 0 690 546" height="546" width="690" data-type="ugc" role="img">
    <g>
        <defs>
            <path id="1e1d1d8a-264b-44b6-bdff-c0ebd86cf4bc" d="M.1 0H448v78H.1V0z"></path>
        </defs>
        <g fill-rule="evenodd">
            <path opacity=".2" fill="#1CB3A0" d="M189.53 380a227.14 227.14 0 0 0 52.947-6.266v-6.825a220.601 220.601 0 0 1-52.944 6.457c-12.756 0-25.525-1.11-38.18-3.333v6.72A227.323 227.323 0 0 0 189.53 380m149.849-69.012h8.802c44.116-52.15 57.52-126.963 28.217-193.588-15.75-35.807-44.034-62.279-77.45-76.535a32.252 32.252 0 0 1-2.031 6.34c31.67 13.676 58.46 38.866 73.414 72.866 29.067 66.08 14.55 140.515-30.952 190.917m-131.29-55.077c12.89 0 25.986-2.614 38.521-8.13 25.86-11.382 42.406-35.281 45.665-61.475-.61.033-1.205.05-1.816.05-1.6 0-3.201-.085-4.793-.25a71.35 71.35 0 0 1-4.24 16.435c-6.856 17.64-20.168 31.551-37.487 39.173-11.67 5.136-23.857 7.568-35.86 7.568-34.376-.002-67.215-19.948-81.923-53.39-12.194-27.721-12.275-57.764-2.568-84.165a44.814 44.814 0 0 1-.87-.45l-.578-.305-.023-.024c-.326-.176-.658-.355-1.006-.549l-.41-.245a47.748 47.748 0 0 1-2.901-1.86c-10.71 28.231-10.8 60.512 2.29 90.268 15.803 35.923 51.073 57.349 88 57.349m7.492-50.773a41.024 41.024 0 0 0 16.564-3.497c14.028-6.175 21.754-20.82 19.824-35.306a47.605 47.605 0 0 1-7.394-16.57 27.476 27.476 0 0 0-10.428-7.15 27.603 27.603 0 0 0-10.019-1.893c-3.776 0-7.547.785-11.107 2.353a22.605 22.605 0 0 0-12.04 12.583 22.62 22.62 0 0 0 .38 17.414c3.104 7.057 10.033 11.268 17.29 11.268a18.76 18.76 0 0 0 7.57-1.598 15.657 15.657 0 0 0 8.338-8.712 15.66 15.66 0 0 0-.263-12.058c-2.184-4.965-7.058-7.923-12.161-7.923-1.781 0-3.59.36-5.323 1.122a11.203 11.203 0 0 0-5.966 6.236 11.214 11.214 0 0 0 .187 8.63 9.627 9.627 0 0 0 5.353 5.126 9.693 9.693 0 0 0 3.512.663 9.648 9.648 0 0 0 3.897-.825c3.53-1.553 5.46-5.256 4.937-8.898a9.066 9.066 0 0 1-.35 5.525 9.07 9.07 0 0 1-4.83 5.047 12.162 12.162 0 0 1-4.908 1.036c-4.705 0-9.203-2.732-11.218-7.311a16.026 16.026 0 0 1-.268-12.34 16.02 16.02 0 0 1 8.532-8.915 20.92 20.92 0 0 1 8.443-1.79c2.57 0 5.144.479 7.611 1.438a20.852 20.852 0 0 1 11.6 11.108c6.007 13.66-.212 29.661-13.868 35.673a34.435 34.435 0 0 1-13.904 2.935c-13.328 0-26.058-7.737-31.762-20.7-4.747-10.795-5.008-22.792-.736-33.784 4.273-10.993 12.569-19.661 23.36-24.411a55.688 55.688 0 0 1 22.474-4.743c6.6 0 13.113 1.175 19.234 3.405a47.094 47.094 0 0 1 3.403-5.83c-7.322-2.828-14.954-4.24-22.577-4.24-8.57 0-17.125 1.784-25.204 5.34-12.41 5.463-21.952 15.434-26.866 28.076-4.914 12.642-4.614 26.441.847 38.856 6.794 15.447 21.959 24.66 37.836 24.66m5.684-39.04a.88.88 0 0 1 .603.242l-2.366 1.04a1.244 1.244 0 0 1-.02-.94 1.24 1.24 0 0 1 .652-.679.706.706 0 0 1 .927.363.755.755 0 0 1 .204-.026m-35.26-119.51c16.012-6.736 32.6-10.29 49.048-10.94a32.538 32.538 0 0 1 .388-6.648c-17.804.628-35.799 4.503-53.104 11.943a47.184 47.184 0 0 1 3.668 5.645"></path>
            <path fill="#4B99C7" d="M204 418l30-14.864V309h-30v109"></path>
            <path fill="#4B99C7" d="M304 205l-86 149-86-149h172"></path>
            <g transform="matrix(-1 0 0 1 690 311)">
                <mask fill="#ffffff" id="1ad011ff-0fec-407b-8eb4-a225c0a1a188">
                    <use xlink:href="#1e1d1d8a-264b-44b6-bdff-c0ebd86cf4bc"></use>
                </mask>
                <path mask="url(#1ad011ff-0fec-407b-8eb4-a225c0a1a188)" fill="#F3B67E" d="M389.926 66.383H448V13.277h-58.074v53.106z"></path>
                <path mask="url(#1ad011ff-0fec-407b-8eb4-a225c0a1a188)" fill="#1CB3A0" d="M.1 78h389.826V0H.1v78z"></path>
                <path mask="url(#1ad011ff-0fec-407b-8eb4-a225c0a1a188)" fill="#119A88" d="M0 78h389.926V58.085H0V78z"></path>
            </g>
            <path fill="#F4F4F3" d="M300 389h-22v-78h22v78z"></path>
            <path fill="#F3B67E" d="M172 383.362a6.64 6.64 0 0 0 6.642 6.638h74.716a6.64 6.64 0 0 0 6.642-6.638v-64.724a6.64 6.64 0 0 0-6.642-6.638h-74.716a6.64 6.64 0 0 0-6.642 6.638v64.724"></path>
            <path fill="#F3B67E" d="M241.674 329.93a6.625 6.625 0 0 0 8.667 3.556l4.585-1.914a6.621 6.621 0 0 0 3.56-8.665l-19.16-45.836a6.627 6.627 0 0 0-8.668-3.557l-4.585 1.914a6.624 6.624 0 0 0-3.56 8.665l19.161 45.836"></path>
            <path fill="#5BAFD6" d="M301 213l-54.249 1.108L208 311.57l33.214 4.43L301 213"></path>
            <path fill="#93CFC8" d="M126 209.5c0 3.59 2.964 6.5 6.62 6.5h173.76c3.656 0 6.62-2.91 6.62-6.5s-2.964-6.5-6.62-6.5H132.62c-3.656 0-6.62 2.91-6.62 6.5"></path>
            <path fill="#FFFFFE" d="M312.261 173.021l-.313.18c-6.043 3.726-12.927 5.831-19.913 6.086-.589.034-1.094.049-1.612.049-6.421 0-12.839-1.566-18.593-4.532l-.003-.003-.472-.254a88.55 88.55 0 0 1-1.339-.723l-.262-.16c-19.245-11.324-25.815-36.254-14.644-55.572 7.277-12.6 20.859-20.428 35.446-20.428 7.108 0 14.147 1.896 20.356 5.483 19.511 11.268 26.22 36.281 14.956 55.763-3.083 5.304-7.236 9.774-12.341 13.282l-.442.291c-.275.183-.549.367-.824.538M290.423 186c.648 0 1.277-.018 1.924-.055 8.023-.295 15.99-2.714 22.984-7l.316-.18c.43-.266.782-.5 1.134-.734l.462-.305c5.987-4.113 10.811-9.306 14.396-15.478 13.107-22.667 5.305-51.765-17.39-64.87C307.027 93.204 298.834 91 290.556 91c-16.963 0-32.758 9.103-41.221 23.758-12.984 22.452-5.367 51.422 16.976 64.614l.412.247c.35.195.684.375 1.012.551l.024.025.582.307A47.412 47.412 0 0 0 290.423 186"></path>
            <path fill="#2F7C7E" d="M267.665 176.892l.332.2c.448.248.913.497 1.378.746l.083.05A43.778 43.778 0 0 0 289.934 183c.581 0 1.146-.017 1.727-.05 7.689-.282 15.078-2.622 21.455-6.556l.266-.15c.482-.298.963-.63 1.445-.945a44.424 44.424 0 0 0 13.285-14.307c12.139-20.996 4.899-47.95-16.108-60.083C305.31 97.04 297.722 95 290.067 95c-15.71 0-30.34 8.432-38.178 22.008-12.073 20.88-4.982 47.668 15.776 59.884"></path>
            <path fill="#61BEE0" d="M268 176.963l.331.196c.447.246.91.493 1.374.739l.082.049A43.913 43.913 0 0 0 290.193 183c.579 0 1.142-.016 1.72-.05 7.663-.278 15.027-2.591 21.382-6.48l.265-.147c.48-.296.96-.624 1.44-.936-.232-.41-.48-.82-.745-1.23a23.233 23.233 0 0 0-1.655-2.297 26.264 26.264 0 0 0-1.671-1.887c-.15-.164-.315-.311-.48-.475a30.62 30.62 0 0 0-1.738-1.543 6.267 6.267 0 0 0-.513-.41c-.127-.101-.253-.101-.38-.1-.121 0-.242 0-.364-.088-.381-.28-.778-.435-1.159-.435h-.016c-.293-1.162-.578-1.119-.871-1.075-.12.017-.245.035-.37-.033-.414-.246-.828-.643-1.258-.856-.464-.231-.944-.536-1.424-.75-.314-.147-.645-.325-.96-.423-.182-.082-.364-.17-.546-.236-.364-.132-.728-.274-1.108-.373a23.608 23.608 0 0 0-1.11-.318c-.214-.066-.43-.116-.645-.166-.364-.082-.728-.165-1.108-.231a27.523 27.523 0 0 0-4.965-.461c-1.688 0-3.36.164-4.965.476a26.424 26.424 0 0 0-13.77 7.202 26.736 26.736 0 0 0-5.179 7.285"></path>
            <path fill="#F5C092" d="M277 138.45v7.1c0 6.35 4.183 11.75 10 13.68a14.51 14.51 0 0 0 4.717.77h.566c1.65 0 3.234-.262 4.717-.77 5.817-1.93 10-7.33 10-13.68v-7.1c0-.492-.017-.966-.083-1.44-.734-7.3-7.017-13.01-14.634-13.01h-.566c-4.634 0-8.767 2.11-11.45 5.4a14.128 14.128 0 0 0-3.267 9.05"></path>
            <path fill="#F5C092" d="M305 140.333c0 .922.67 1.667 1.5 1.667s1.5-.745 1.5-1.667v-1.666c0-.922-.67-1.667-1.5-1.667s-1.5.745-1.5 1.667v1.666"></path>
            <path fill="#F5C092" d="M275 140.333c0 .922.67 1.667 1.5 1.667s1.5-.745 1.5-1.667v-1.666c0-.922-.67-1.667-1.5-1.667s-1.5.745-1.5 1.667v1.666"></path>
            <path fill="#F5C092" d="M287 149.23v13.54c0 2.335 2.3 4.23 5 4.23 1.35 0 2.6-.474 3.517-1.237.916-.76 1.483-1.826 1.483-2.994v-13.538c0-2.336-2.3-4.231-5-4.231-1.35 0-2.6.474-3.517 1.235-.916.762-1.483 1.826-1.483 2.996"></path>
            <path fill="#FFFFFE" d="M288 151.5c0 .83.782 1.5 1.75 1.5h3.5c.968 0 1.75-.67 1.75-1.5s-.782-1.5-1.75-1.5h-3.5c-.968 0-1.75.67-1.75 1.5"></path>
            <path fill="#ED9745" d="M278 127.967a8.41 8.41 0 0 0 1.802 1.479c3.338 2.073 7.61 1.543 11.75 1.543 1.384 0 2.77.064 4.088.289 5.574.964 10.196 5.047 10.847 5.642l.084.08c1.151-3.711-.2-6.236-1.853-7.812-1.635-1.575-3.571-2.234-3.571-2.234-2.954-2.973-6.342-3.97-9.596-3.954-1.936.016-3.788.386-5.507.916-4.606 1.43-8.044 4.05-8.044 4.05"></path>
            <path fill="#ED9745" d="M286 130.967s-1.363 5.115-9 6.033c0 0 .273-6.687 2.864-8l6.136 1.967"></path>
            <path fill="#ED9745" d="M307 140h-2v-5h2v5z"></path>
            <path fill="#ED9745" d="M279 140h-2v-5h2v5z"></path>
            <path fill="#539494" d="M297.67 162.142c-.44-.1-.88-.204-1.34-.284v.002c.46.08.9.182 1.34.282"></path>
            <path fill="#7ACAE6" d="M292 183c7.634-.286 14.97-2.657 21.302-6.642l.264-.151c.478-.303.956-.64 1.434-.959-.23-.42-.478-.84-.742-1.26a23.807 23.807 0 0 0-1.649-2.355 26.692 26.692 0 0 0-1.665-1.934c-.148-.168-.313-.319-.478-.487a30.804 30.804 0 0 0-1.731-1.58 6.076 6.076 0 0 0-.511-.421c-.12-.098-.24-.103-.36-.103h-.02c-.12 0-.24 0-.362-.09-.38-.286-.775-.446-1.154-.446h-.017c-.236-.965-.468-1.118-.702-1.118-.055 0-.11.008-.165.017-.056.006-.11.015-.167.015a.414.414 0 0 1-.202-.05c-.413-.251-.825-.658-1.253-.877-.462-.237-.94-.55-1.418-.768-.314-.152-.643-.333-.957-.434-.181-.084-.362-.175-.544-.242-.362-.135-.725-.281-1.104-.382a22.265 22.265 0 0 0-1.105-.326 8.974 8.974 0 0 0-.643-.17c-.363-.084-.726-.17-1.105-.237v.368c0 1.16-.56 2.22-1.467 2.975-.907.758-2.144 1.229-3.479 1.229V183"></path>
            <path fill="#539494" d="M306.587 137.25c1.116-3.78-.213-6.348-1.815-7.952-1.582-1.603-3.468-2.274-3.468-2.274-2.837-3.002-6.099-4.024-9.228-4.024H292h.073c3.13 0 6.383 1.022 9.221 4.024 0 0 1.875.671 3.459 2.274 1.592 1.597 2.898 4.15 1.809 7.9l.026.051"></path>
            <path fill="#F7CCA7" d="M297 159a14.631 14.631 0 0 0 2.998-1.42A14.83 14.83 0 0 0 307 144.961v-3.644c-.922 0-1.667-.75-1.667-1.68v-4.805c-1.933-1.53-5.358-3.827-9.25-4.53-1.316-.236-2.7-.303-4.083-.303v14.676c2.7 0 5 1.881 5 4.198V159"></path>
            <path fill="#F7CCA7" d="M307 142v-2h-2c0 1.106.894 2 2 2"></path>
            <path fill="#F7CCA7" d="M292 167c1.35 0 2.6-.474 3.517-1.237.916-.76 1.483-1.826 1.483-2.994v-13.538c0-2.336-2.3-4.231-5-4.231v5.077h1.667c.921 0 1.666.756 1.666 1.692 0 .936-.745 1.693-1.666 1.693H292V167"></path>
            <path fill="#FFFFFE" d="M292 153h1.5c.83 0 1.5-.67 1.5-1.5s-.67-1.5-1.5-1.5H292v3"></path>
            <path fill="#F1AA62" d="M306.598 137c1.092-3.699-.217-6.215-1.813-7.79-1.588-1.58-3.468-2.242-3.468-2.242-2.845-2.96-6.105-3.968-9.244-3.968H292v8.017c1.345 0 2.69.065 3.97.29 3.783.676 7.113 2.883 8.993 4.353v-.223h1.62v1.532l.015.031"></path>
            <path fill="#F1AA62" d="M305 140h2v-5h-2v5"></path>
            <path fill="#FFFFFE" d="M166.261 104.021l-.313.18c-6.043 3.727-12.927 5.83-19.913 6.086-.589.034-1.092.049-1.612.049-6.421 0-12.839-1.566-18.593-4.532l-.003-.003-.474-.253c-.451-.242-.902-.482-1.337-.724l-.262-.16c-19.245-11.322-25.815-36.253-14.644-55.57 7.277-12.603 20.859-20.43 35.446-20.43 7.108 0 14.147 1.898 20.356 5.485 19.511 11.267 26.22 36.281 14.956 55.76-3.083 5.306-7.236 9.776-12.341 13.283l-.442.291c-.275.184-.549.367-.824.538M144.423 117c.648 0 1.277-.018 1.924-.055 8.023-.295 15.991-2.714 22.984-7l.317-.18c.43-.266.781-.5 1.133-.734l.462-.305c5.987-4.113 10.811-9.306 14.396-15.477 13.107-22.667 5.305-51.765-17.39-64.87C161.027 24.206 152.834 22 144.556 22c-16.963 0-32.758 9.105-41.221 23.761-12.984 22.45-5.367 51.42 16.975 64.611l.413.247c.35.195.684.375 1.012.551l.024.025.582.307A47.413 47.413 0 0 0 144.423 117"></path>
            <path fill="#2F7C7E" d="M121.665 106.892l.332.2c.448.25.913.497 1.378.745l.083.053a43.797 43.797 0 0 0 20.476 5.11c.581 0 1.146-.017 1.727-.05 7.689-.282 15.078-2.624 21.455-6.556l.266-.15c.482-.298.963-.63 1.445-.945a44.44 44.44 0 0 0 13.285-14.307c12.139-20.994 4.899-47.95-16.108-60.082-6.693-3.867-14.282-5.91-21.937-5.91-15.71 0-30.34 8.431-38.178 22.01-12.073 20.879-4.982 47.667 15.776 59.882"></path>
            <path fill="#E15E4B" d="M122 106.963l.331.196c.447.248.91.493 1.374.737l.082.053A43.932 43.932 0 0 0 144.193 113c.579 0 1.142-.016 1.72-.05 7.663-.278 15.027-2.593 21.382-6.48l.265-.147c.48-.296.96-.624 1.44-.935-.232-.41-.48-.82-.745-1.231a23.233 23.233 0 0 0-1.655-2.297 26.651 26.651 0 0 0-1.671-1.888c-.15-.163-.315-.31-.48-.474a30.62 30.62 0 0 0-1.738-1.543 6.267 6.267 0 0 0-.513-.41c-.127-.101-.253-.101-.38-.1-.121 0-.242 0-.364-.087-.381-.279-.778-.436-1.159-.436h-.016c-.293-1.162-.578-1.119-.871-1.076-.122.018-.245.036-.37-.032-.414-.244-.828-.643-1.258-.856-.464-.231-.944-.535-1.424-.75-.314-.147-.645-.325-.96-.423-.182-.082-.364-.17-.546-.236-.364-.132-.728-.274-1.108-.373a22.461 22.461 0 0 0-1.11-.318c-.214-.066-.43-.116-.645-.166-.364-.082-.728-.167-1.108-.231a27.672 27.672 0 0 0-4.965-.461c-1.688 0-3.36.162-4.965.476a26.436 26.436 0 0 0-13.77 7.202 26.786 26.786 0 0 0-5.179 7.285"></path>
            <path fill="#F5C092" d="M131 68.45v7.1c0 6.35 4.183 11.75 10 13.68a14.51 14.51 0 0 0 4.717.77h.566c1.65 0 3.234-.262 4.717-.77 5.817-1.93 10-7.33 10-13.68v-7.1c0-.492-.017-.966-.083-1.44-.734-7.3-7.017-13.01-14.634-13.01h-.566c-4.634 0-8.767 2.11-11.45 5.4A14.128 14.128 0 0 0 131 68.45"></path>
            <path fill="#F5C092" d="M159 70.333c0 .922.67 1.667 1.5 1.667s1.5-.745 1.5-1.667v-1.666c0-.922-.67-1.667-1.5-1.667s-1.5.745-1.5 1.667v1.666"></path>
            <path fill="#F5C092" d="M130 70.333c0 .922.67 1.667 1.5 1.667s1.5-.745 1.5-1.667v-1.666c0-.922-.67-1.667-1.5-1.667s-1.5.745-1.5 1.667v1.666"></path>
            <path fill="#F5C092" d="M141 79.23v13.54c0 2.335 2.3 4.23 5 4.23 1.35 0 2.6-.474 3.517-1.235.916-.762 1.483-1.828 1.483-2.996V79.231c0-2.336-2.3-4.231-5-4.231-1.35 0-2.6.474-3.517 1.235-.916.762-1.483 1.828-1.483 2.996"></path>
            <path fill="#FFFFFE" d="M142 82.5c0 .83.782 1.5 1.75 1.5h3.5c.968 0 1.75-.67 1.75-1.5s-.782-1.5-1.75-1.5h-3.5c-.968 0-1.75.67-1.75 1.5"></path>
            <path fill="#ED9745" d="M132 57.967a8.41 8.41 0 0 0 1.802 1.479c3.338 2.073 7.61 1.543 11.75 1.543 1.384 0 2.77.064 4.088.289 5.574.964 10.196 5.047 10.847 5.642l.084.08c1.151-3.713-.2-6.236-1.853-7.812-1.635-1.575-3.571-2.234-3.571-2.234-2.954-2.972-6.342-3.97-9.596-3.954-1.936.016-3.788.386-5.507.916-4.606 1.43-8.044 4.05-8.044 4.05"></path>
            <path fill="#ED9745" d="M140 60.967s-1.363 5.115-9 6.033c0 0 .273-6.687 2.864-8L140 60.967"></path>
            <path fill="#ED9745" d="M161 70h-2v-5h2v5z"></path>
            <path fill="#ED9745" d="M133 70h-2v-5h2v5z"></path>
            <path fill="#539494" d="M151.866 93c-.333-.076-.668-.156-1.017-.22v.003c.35.061.684.14 1.017.217m8.722-25.557c1.115-3.832-.214-6.434-1.816-8.057-1.582-1.627-3.468-2.307-3.468-2.307-2.837-3.04-6.096-4.079-9.223-4.079H146h.074c3.13 0 6.382 1.036 9.22 4.08 0 0 1.875.68 3.459 2.304 1.592 1.619 2.898 4.206 1.809 8.008l.026.051"></path>
            <path fill="#E77A69" d="M146 113c7.634-.286 14.97-2.658 21.302-6.642l.264-.151c.478-.303.956-.64 1.434-.959-.23-.42-.478-.84-.742-1.26a23.807 23.807 0 0 0-1.649-2.355 27.086 27.086 0 0 0-1.665-1.935c-.148-.167-.313-.318-.478-.486a30.804 30.804 0 0 0-1.731-1.58 6.076 6.076 0 0 0-.511-.421c-.12-.098-.24-.103-.358-.103h-.043c-.114 0-.228-.005-.341-.089-.38-.286-.775-.447-1.154-.447h-.017c-.236-.967-.468-1.12-.702-1.12-.056 0-.11.008-.165.017-.056.008-.112.017-.168.017a.408.408 0 0 1-.201-.05c-.413-.25-.825-.658-1.253-.877-.462-.237-.94-.548-1.418-.768-.314-.152-.643-.333-.957-.434-.181-.084-.362-.175-.544-.242-.362-.135-.725-.281-1.104-.382-.363-.12-.726-.224-1.105-.326a8.974 8.974 0 0 0-.711-.187c-.34-.077-.68-.158-1.037-.22v.368c0 1.16-.56 2.22-1.467 2.976-.907.757-2.144 1.228-3.479 1.228V113"></path>
            <path fill="#F7CCA7" d="M151 90c5.453-1.857 9.472-6.843 9.952-12.828a15.27 15.27 0 0 0 .048-1.21V72.32a1.672 1.672 0 0 1-1.667-1.68v-4.806c-1.933-1.53-5.358-3.825-9.25-4.53-1.316-.236-2.7-.303-4.083-.303v14.677c2.7 0 5 1.881 5 4.198V90"></path>
            <path fill="#F7CCA7" d="M161 72v-2h-2c0 1.106.894 2 2 2"></path>
            <path fill="#F7CCA7" d="M146 97c1.35 0 2.6-.474 3.517-1.235.916-.762 1.483-1.828 1.483-2.996V79.231c0-2.336-2.3-4.231-5-4.231v5.077h1.667c.921 0 1.666.756 1.666 1.692 0 .936-.745 1.693-1.666 1.693H146V97"></path>
            <path fill="#FFFFFE" d="M146 84h1.5c.83 0 1.5-.67 1.5-1.5s-.67-1.5-1.5-1.5H146v3"></path>
            <path fill="#F1AA62" d="M160.598 67c1.092-3.699-.217-6.215-1.813-7.79-1.588-1.58-3.468-2.242-3.468-2.242-2.845-2.96-6.105-3.968-9.242-3.968H146v8.017c1.345 0 2.69.065 3.97.29 3.783.678 7.113 2.883 8.993 4.353v-.223h1.62v1.532l.015.031"></path>
            <path fill="#F1AA62" d="M159 70h2v-5h-2v5"></path>
            <path fill="#2F7C7E" d="M236 33.5c0 11.987 6.714 22.43 16.579 27.737A31.281 31.281 0 0 0 267.5 65a31.281 31.281 0 0 0 14.921-3.763C292.286 55.93 299 45.487 299 33.5 299 16.109 284.891 2 267.5 2S236 16.109 236 33.5"></path>
            <path fill="#FFFFFE" d="M267.5 2.667c17.002 0 30.833 13.831 30.833 30.833a30.793 30.793 0 0 1-16.228 27.15c-8.91 4.822-20.302 4.82-29.208.002a30.796 30.796 0 0 1-16.23-27.152c0-17.002 13.831-30.833 30.833-30.833m0 63.333a32.46 32.46 0 0 0 15.397-3.883A32.457 32.457 0 0 0 300 33.5C300 15.58 285.42 1 267.5 1S235 15.58 235 33.5a32.46 32.46 0 0 0 17.105 28.618A32.466 32.466 0 0 0 267.5 66"></path>
            <path fill="#FAD49E" d="M278 33.37c0 .694.276 1.082.7 1.436.239.192.515.194.81.194.827 0 1.49-.94 1.49-2.015 0-1.076-.663-1.985-1.49-1.985-.295 0-.553.538-.792.732l-.019.443h-.018c-.405 0-.681.52-.681 1.195"></path>
            <path fill="#FAD49E" d="M253 33c0 1.104.67 2 1.5 2s1.5-.896 1.5-2-.67-2-1.5-2-1.5.896-1.5 2"></path>
            <path fill="#F1AF5D" d="M252 53.5v8.717A31.447 31.447 0 0 0 267 66a31.447 31.447 0 0 0 15-3.783V53.5c0-1.833-1.5-2.5-3.333-2.5h-23.334c-1.833 0-3.333.667-3.333 2.5"></path>
            <path fill="#FAD49E" d="M256 31.677v3.51c0 5.367 3.466 9.872 8.214 11.324 1.035.32 2.136.489 3.286.489s2.25-.169 3.286-.49c1.856-.556 3.515-1.602 4.846-2.97 2.087-2.142 3.368-5.079 3.368-8.352v-3.46C278.95 25.231 273.825 20 267.5 20c-3.189 0-6.046 1.316-8.132 3.46A11.888 11.888 0 0 0 256 31.676"></path>
            <path fill="#FAD49E" d="M264 50.945c0 1.687 1.474 3.055 3.29 3.055h.42c1.817 0 3.29-1.368 3.29-3.055v-6.89c0-1.687-1.474-3.055-3.29-3.055h-.42c-1.817 0-3.29 1.368-3.29 3.055v6.89"></path>
            <path fill="#E15F34" d="M256.036 31.9l.017-.034 1.123-2.476c3.046-.318 5.39-3.346 5.39-3.346 1.646 1.539 3.307 2.225 4.887 2.444 1.737.253 3.398-.038 4.916-.33 1.785-.34 3.375-.684 4.66-.14.895.402 1.677 3.38 1.807 3.898l.016.084.017-.1c.928-5.17-3.371-8.466-3.371-8.466-2.769-2.727-5.619-3.497-8.045-3.43-3.632.1-6.32 2.058-6.32 2.058-5.553 3.011-5.178 8.984-5.097 9.838"></path>
            <path fill="#E15F34" d="M254.94 31.12l.12-.12-.02-.12-.08.2-.02.04"></path>
            <path fill="#539494" d="M281 33v-.027c0-1.047-.576-1.907-1.296-1.907-.256 0-.48.11-.688.297l-.016.094v.782l.016-.432c.208-.189.432-.713.688-.713.714 0 1.286.87 1.296 1.906"></path>
            <path fill="#FADCAF" d="M279.705 35c.713 0 1.285-.893 1.295-1.987-.01-1.095-.582-2.013-1.295-2.013-.256 0-.48.553-.687.753l-.016.456v2.477c0 .076 0 .15-.002.225.002-.075.002-.149.002-.225.207.198.447.314.703.314"></path>
            <path fill="#F4C17B" d="M267 66a31.447 31.447 0 0 0 15-3.783V53.5c0-1.833-1.5-2.5-3.333-2.5h-8.334v.2a3.134 3.134 0 0 1-3.133 3.133h-.2V66"></path>
            <path fill="#FADCAF" d="M270.429 46a11.926 11.926 0 0 0 5.057-2.97c2.125-2.094 3.45-4.94 3.512-8.123.002-.076.002-.152.002-.23v-3.374l-.017-.085c-.137-.523-.96-3.526-1.903-3.931-.513-.208-1.07-.287-1.666-.287-.983 0-2.07.214-3.239.429-1.169.214-2.417.428-3.718.428-.478 0-.965-.028-1.457-.096v12.822h.206c1.78 0 3.223 1.421 3.223 3.173V46"></path>
            <path fill="#FADCAF" d="M267 54h.18c1.557 0 2.82-1.368 2.82-3.055v-6.89c0-1.687-1.263-3.055-2.82-3.055H267v13"></path>
            <path fill="#E77E55" d="M278.848 32l.017-.1a7.741 7.741 0 0 0 .135-1.46c0-4.323-3.639-7.007-3.639-7.007-2.766-2.622-5.609-3.433-8.065-3.433-.1 0-.198 0-.296.003v8.485c.486.067.966.095 1.439.095 1.284 0 2.516-.212 3.67-.425 1.155-.212 2.228-.425 3.198-.425.589 0 1.139.079 1.645.285.93.401 1.743 3.38 1.879 3.898l.017.084"></path>
            <path fill="#FFFFFE" d="M152.652 172.991a16.679 16.679 0 0 0 9.62 3.052c9.212 0 16.705-7.445 16.705-16.595 0-8.447-6.39-15.425-14.616-16.451V133C178.144 134.062 189 145.483 189 159.448 189 174.113 177.034 186 162.273 186A26.71 26.71 0 0 1 145 179.692l7.652-6.701"></path>
            <path fill="#E77B69" d="M145.836 159.24c0 4.349 1.703 8.294 4.46 11.237L142.921 177c-4.285-4.682-6.921-10.904-6.921-17.76 0-14.111 11.089-25.59 25-26.24v9.864c-8.466.634-15.164 7.728-15.164 16.377"></path>
            <path fill="#FFFFFE" d="M372 238h-7v-20h7v20z"></path>
            <path fill="#FFFFFE" d="M385 238h-7v-27h7v27z"></path>
            <path fill="#FFFFFE" d="M398 238h-7v-36h7v36z"></path>
            <path fill="#FFFFFE" d="M412 238h-7v-43h7v43z"></path>
            <path fill="#FFFFFE" d="M400.65 186.353l-3.387-2.443c2.878.338 6.8-.17 9.737-.91-1.748 2.483-3.638 5.97-4.365 8.788l-1.044-4.055L361.94 215l-.94-1.379 39.65-27.268"></path>
            <path fill="#E77B69" d="M346 105c0 16.568 13.432 30 30 30 16.568 0 30-13.432 30-30 0-16.568-13.432-30-30-30-16.568 0-30 13.432-30 30"></path>
            <path fill="#FFFFFE" d="M369.44 115.418c-2.366 1.364-4.44.248-4.44-2.484v-15.87c0-2.73 2.074-3.847 4.44-2.48l13.805 7.932c2.362 1.368 2.33 3.6-.035 4.966l-13.77 7.936"></path>
            <path fill="#52565D" d="M350 33.395c0 3.097 2.542 5.605 5.678 5.605h.644c3.136 0 5.678-2.508 5.678-5.605V22.607c0-3.099-2.542-5.607-5.678-5.607h-.644c-3.136 0-5.678 2.508-5.678 5.607v10.788"></path>
            <path fill="#373530" d="M355.247 39h.625-.625C352.35 39 350 36.586 350 33.606V23.223v10.383c0 2.98 2.35 5.394 5.247 5.394"></path>
            <path fill="#51504F" d="M355.63 39h.715l.024-.002h.055l.011-.001A5.63 5.63 0 0 0 361 36.425a5.619 5.619 0 0 1-3.034.891h-.635c-3.11 0-5.631-2.495-5.631-5.577V21.004c0-1.11.334-2.135.897-3.004-1.497.951-2.515 2.58-2.592 4.457l-.003.06v.059c0 .004 0 .007-.002.01v10.838c0 3.081 2.52 5.577 5.63 5.577"></path>
            <path fill="#F1CA61" d="M342 13.241C342 5.93 348.045 0 355.5 0S369 5.929 369 13.241c0 4.44-2.234 8.357-5.651 10.759h-15.698C344.234 21.598 342 17.68 342 13.241"></path>
            <path fill="#52565D" d="M363 32h-15v-8h15v8z"></path>
            <path fill="#73777C" d="M363 27h-15v-3h15v3z"></path>
            <path fill="#F9FCFA" d="M361 7.5a1.5 1.5 0 1 0 3.001-.001A1.5 1.5 0 0 0 361 7.5"></path>
            <path fill="#FAFAFA" d="M437.5 163.333c11.488 0 20.488-9.345 20.488-20.833 0-11.207-8.68-20.348-20.346-20.792v21.625l.236.465-18.295 9.28c3.632 6.125 10.294 10.255 17.917 10.255zM416.322 142.5c0 3.27.603 6.355 1.951 9.11l17.702-9.067v-20.835c-10 .444-19.653 9.585-19.653 20.792zM437.5 120c12.407 0 22.5 10.095 22.5 22.5S449.907 165 437.5 165 415 154.905 415 142.5s10.093-22.5 22.5-22.5z"></path>
            <path fill="#FAFAFA" d="M57.667 140.401a2.498 2.498 0 0 0 2.5 2.49h16.198l6.087 5.484-1.522-4.295.597-1.19h10.306a2.498 2.498 0 0 0 2.5-2.489v-18.253a2.498 2.498 0 0 0-2.5-2.489H60.167a2.498 2.498 0 0 0-2.5 2.49V140.4zm2.5-22.401h31.666c2.299 0 4.167 1.862 4.167 4.148v18.253c0 2.289-1.868 4.149-4.167 4.149h-8.97l3.352 9.45-10.492-9.45H60.167c-2.299 0-4.167-1.86-4.167-4.149v-18.253c0-2.286 1.868-4.148 4.167-4.148z"></path>
            <path fill="#FAFAFA" d="M90 127H70v-2h20v2z"></path>
            <path fill="#FAFAFA" d="M80 132H63v-2h17v2z"></path>
            <path fill="#FAFAFA" d="M88 139H65v-2h23v2z"></path>
            <path fill="#FFFFFE" d="M329.55 250.892l.399-1.224a13.325 13.325 0 0 0-4.146-.668l-.003 1.286a12.079 12.079 0 0 1 3.75.606zm-10.898 1.7a12.195 12.195 0 0 1 3.39-1.724l-.392-1.222a13.37 13.37 0 0 0-3.747 1.906l.749 1.04zm16.959 2.753l1.038-.756a13.61 13.61 0 0 0-2.963-2.992l-.754 1.038a12.285 12.285 0 0 1 2.679 2.71zm-21.398 3.335a12.2 12.2 0 0 1 1.741-3.394l-1.033-.763a13.406 13.406 0 0 0-1.921 3.755l1.213.401zM339 262.525v-.025c0-1.42-.12-2.815-.548-4.144l-1.169.393c.387 1.206.51 2.465.51 3.751l1.207.025zm-25.28 4.145l.85-.397c-.393-1.215-.037-2.484-.037-3.773l-.727-.05v.05c0 1.424-.519 2.827-.085 4.17zm22.897 3.783a13.478 13.478 0 0 0 1.916-3.758l-1.216-.4a12.2 12.2 0 0 1-1.732 3.4l1.032.758zm-18.756 2.965l.75-1.04a12.24 12.24 0 0 1-2.683-2.703l-1.037.756a13.436 13.436 0 0 0 2.97 2.987zm12.039 1.929a13.31 13.31 0 0 0 3.744-1.914l-.753-1.04a12.146 12.146 0 0 1-3.386 1.732l.395 1.222zm-4.337.653v-1.286c-1.68-.002-2.45-.202-3.661-.597l-.44 1.221c1.337.438 2.422.66 4.101.662z"></path>
            <path fill="#FFFFFE" d="M436.551 52.892l.398-1.222a13.278 13.278 0 0 0-4.146-.67l-.004 1.286a12.08 12.08 0 0 1 3.752.606zm-10.898 1.7a12.12 12.12 0 0 1 3.391-1.722l-.393-1.224a13.37 13.37 0 0 0-3.747 1.905l.75 1.042zm16.958 2.753l1.036-.756a13.601 13.601 0 0 0-2.96-2.992l-.757 1.04a12.212 12.212 0 0 1 2.68 2.708zm-21.397 3.336a12.2 12.2 0 0 1 1.742-3.395l-1.033-.761A13.423 13.423 0 0 0 420 60.278l1.214.403zM446 64.525V64.5c0-1.42-.12-2.815-.548-4.145l-1.17.395c.388 1.205.51 2.466.51 3.75l1.208.025zm-25.278 4.145l.85-.395c-.395-1.217-.039-2.486-.039-3.775l-.725-.05v.05c0 1.424-.52 2.827-.086 4.17zm22.895 3.783a13.442 13.442 0 0 0 1.914-3.756l-1.214-.402a12.237 12.237 0 0 1-1.731 3.4l1.03.758zm-18.755 2.965l.75-1.04a12.284 12.284 0 0 1-2.685-2.703l-1.034.756a13.4 13.4 0 0 0 2.97 2.987zm12.039 1.93a13.282 13.282 0 0 0 3.741-1.915l-.75-1.04a12.126 12.126 0 0 1-3.388 1.732l.397 1.224zm-4.337.652v-1.284c-1.68-.002-2.45-.204-3.661-.6l-.442 1.224c1.337.436 2.424.658 4.103.66z"></path>
            <path fill="#FFFFFE" d="M67.551 65.892l.398-1.222a13.278 13.278 0 0 0-4.146-.67l-.004 1.286a12.08 12.08 0 0 1 3.752.606zm-10.898 1.7a12.12 12.12 0 0 1 3.391-1.722l-.393-1.224a13.37 13.37 0 0 0-3.747 1.906l.75 1.04zm16.958 2.753l1.036-.756a13.601 13.601 0 0 0-2.96-2.992l-.757 1.04a12.212 12.212 0 0 1 2.68 2.708zm-21.397 3.336a12.2 12.2 0 0 1 1.742-3.395l-1.033-.761A13.423 13.423 0 0 0 51 73.278l1.214.403zM77 77.525V77.5c0-1.42-.12-2.815-.548-4.144l-1.17.394c.388 1.205.51 2.466.51 3.75l1.208.025zM51.722 81.67l.85-.395c-.395-1.217-.039-2.486-.039-3.775l-.725-.05v.05c0 1.424-.52 2.827-.086 4.17zm22.895 3.783a13.442 13.442 0 0 0 1.914-3.756l-1.214-.402a12.237 12.237 0 0 1-1.731 3.4l1.03.758zm-18.755 2.965l.75-1.04a12.284 12.284 0 0 1-2.685-2.703l-1.034.756a13.4 13.4 0 0 0 2.97 2.987zm12.039 1.93a13.282 13.282 0 0 0 3.741-1.915l-.75-1.04a12.126 12.126 0 0 1-3.388 1.732l.397 1.224zM63.564 91v-1.284c-1.68-.002-2.45-.204-3.661-.6l-.442 1.224c1.337.436 2.424.658 4.103.66z"></path>
            <path fill="#F2F5F6" d="M59 203h46v-2H59v2z"></path>
            <path fill="#F2F5F6" d="M59 218h46v-2H59v2z"></path>
            <path fill="#F2F5F6" d="M58 208h35v-2H58v2z"></path>
            <path fill="#F2F5F6" d="M58 213h22v-2H58v2z"></path>
            <path fill="#F2F5F6" d="M406 263h-46v-2h46v2z"></path>
            <path fill="#F2F5F6" d="M406 278h-46v-2h46v2z"></path>
            <path fill="#F2F5F6" d="M406 268h-35v-2h35v2z"></path>
            <path fill="#F2F5F6" d="M407 273h-22v-2h22v2z"></path>
            <path fill="#F2F5F6" d="M1 32h46v-2H1v2z"></path>
            <path fill="#F2F5F6" d="M1 47h46v-2H1v2z"></path>
            <path fill="#F2F5F6" d="M0 37h35v-2H0v2z"></path>
            <path fill="#F2F5F6" d="M0 42h22v-2H0v2z"></path>
            <path fill="#F2F5F6" d="M501 91h-46v-2h46v2z"></path>
            <path fill="#F2F5F6" d="M501 105h-46v-2h46v2z"></path>
            <path fill="#F2F5F6" d="M501 95h-35v-2h35v2z"></path>
            <path fill="#F2F5F6" d="M501 100h-22v-2h22v2z"></path>
            <path fill="#FFFFFE" d="M222 79h-7v-7h7v7z"></path>
            <path fill="#FFFFFE" d="M372 180h-7v-7h7v7z"></path>
            <path fill="#FFFFFE" d="M448 202h-7v-7h7v7z"></path>
            <path fill="#FFFFFE" d="M120 248h-7v-7h7v7z"></path>
            <path fill="#FFFFFE" d="M158 301h-7v-7h7v7z"></path>
            <path fill="#FFFFFE" d="M392 39h-7v-7h7v7z"></path>
            <path fill="#FFFFFE" d="M81 33h-7v-7h7v7z"></path>
            <path fill="#FFFFFE" d="M212 21h-7v-7h7v7z"></path>
            <path fill="#FFFFFE" d="M95 180h-7v-7h7v7z"></path>
            <path fill="#2F7C7E" d="M66 266.2c0-1.766 2.272-3.2 4.392-3.2h51.773c2.118 0 3.835 1.434 3.835 3.2v4.8H66v-4.8"></path>
            <path fill="#FAFAFA" d="M126 271v42.714c0 1.814-1.717 3.286-3.835 3.286H70.392c-2.12 0-4.392-1.472-4.392-3.286V271h60"></path>
            <path fill="#E77B69" d="M81 299h-3v-7h3v7z"></path>
            <path fill="#E77B69" d="M88 299h-3v-10h3v10z"></path>
            <path fill="#E77B69" d="M94 299h-3v-18h3v18z"></path>
            <path fill="#E77B69" d="M101 299h-3v-20h3v20z"></path>
            <path fill="#E77B69" d="M108 299h-3v-8h3v8z"></path>
            <path fill="#E77B69" d="M114 299h-3v-15h3v15z"></path>
            <path fill="#E77B69" d="M114 304H78v-2h36v2z"></path>
            <path fill="#5BB786" d="M108 266.5a1.5 1.5 0 1 0 2.998 0 1.5 1.5 0 0 0-2.998 0"></path>
            <path fill="#5BB786" d="M113 266.5a1.5 1.5 0 1 0 2.998 0 1.5 1.5 0 0 0-2.998 0"></path>
            <path fill="#5BB786" d="M118 266.5a1.5 1.5 0 1 0 2.998 0 1.5 1.5 0 0 0-2.998 0"></path>
            <path fill="#F5D340" d="M192 458c0 16.57 13.432 30 30 30 16.567 0 30-13.43 30-30 0-16.565-13.433-30-30-30-16.568 0-30 13.435-30 30"></path>
            <path fill="#EEA22D" d="M222 485.692c15.268 0 27.69-12.422 27.69-27.692 0-15.267-12.422-27.688-27.69-27.688S194.308 442.733 194.308 458c0 15.27 12.424 27.692 27.692 27.692M222 428c16.567 0 30 13.435 30 30 0 16.57-13.433 30-30 30-16.568 0-30-13.43-30-30 0-16.565 13.432-30 30-30"></path>
            <path fill="#EEA22D" d="M222 481c12.682 0 23-10.317 23-23 0-12.681-10.318-23-23-23s-23 10.319-23 23c0 12.683 10.318 23 23 23"></path>
            <path fill="#F4CC79" d="M220.899 478H218.8l.37-4.69a52.702 52.702 0 0 1-6.803-.785l.291-3.171c3.516.084 5.795.138 6.842.165l.74-9.302-2.596-.7c-2.032-.55-3.484-1.48-4.346-2.781-.868-1.302-1.298-3.066-1.298-5.29 0-1.618.169-2.932.513-3.933.34-1.003.94-1.764 1.792-2.283a7.699 7.699 0 0 1 2.845-1.032c1.042-.166 2.446-.247 4.202-.247h.453l.291-3.951h2.06l-.289 4.032c2.309.088 4.33.349 6.058.785l-.246 3.007a134.513 134.513 0 0 0-6.1-.166l-.699 9.142 2.347.658c2.117.575 3.605 1.51 4.475 2.797.863 1.291 1.298 3.05 1.298 5.273 0 3.158-.716 5.25-2.145 6.276-1.429 1.032-3.957 1.547-7.582 1.547l-.374 4.649m1.363-17.208l-.7 8.727c2.057 0 3.446-.263 4.158-.782.717-.518 1.076-1.605 1.076-3.256 0-1.45-.251-2.458-.744-3.02-.495-.564-1.373-1.009-2.638-1.34l-1.152-.33m-.745-13.177c-2.143 0-3.57.213-4.285.64-.716.425-1.071 1.532-1.071 3.316 0 1.396.256 2.384.76 2.964.51.575 1.408 1.027 2.703 1.356l1.194.329.7-8.605"></path>
            <path fill="#F5D340" d="M155 499c0 11.047 8.956 20 20 20 11.045 0 20-8.953 20-20 0-11.043-8.955-20-20-20-11.044 0-20 8.957-20 20"></path>
            <path fill="#EEA22D" d="M175 517.462c10.179 0 18.46-8.282 18.46-18.462 0-10.178-8.281-18.458-18.46-18.458s-18.46 8.28-18.46 18.458c0 10.18 8.281 18.462 18.46 18.462M175 479c11.045 0 20 8.957 20 20 0 11.047-8.955 20-20 20-11.044 0-20-8.953-20-20 0-11.043 8.956-20 20-20"></path>
            <path fill="#EEA22D" d="M174.5 514c8.546 0 15.5-6.952 15.5-15.5 0-8.546-6.954-15.5-15.5-15.5s-15.5 6.954-15.5 15.5c0 8.548 6.954 15.5 15.5 15.5"></path>
            <path fill="#F4CC79" d="M174.09 512h-1.436l.252-3.086a36.89 36.89 0 0 1-4.653-.517l.198-2.085c2.405.054 3.965.092 4.681.11l.508-6.12-1.777-.463c-1.39-.359-2.385-.97-2.974-1.829-.594-.854-.889-2.016-.889-3.477 0-1.068.117-1.93.351-2.589a2.74 2.74 0 0 1 1.227-1.503 5.434 5.434 0 0 1 1.945-.678c.713-.11 1.675-.163 2.875-.163h.31l.201-2.6h1.409l-.197 2.654c1.578.059 2.961.23 4.144.517l-.17 1.977a96.659 96.659 0 0 0-4.173-.11l-.477 6.016 1.604.432c1.45.378 2.468.994 3.063 1.84.591.85.888 2.007.888 3.468 0 2.08-.49 3.454-1.468 4.129-.978.678-2.709 1.019-5.188 1.019l-.255 3.058m.932-11.321l-.479 5.743c1.407 0 2.358-.173 2.847-.516.49-.342.734-1.056.734-2.14 0-.955-.171-1.619-.509-1.987-.337-.373-.938-.665-1.804-.884l-.789-.216m-.51-8.668c-1.465 0-2.441.14-2.93.419-.49.28-.733 1.01-.733 2.181 0 .921.175 1.57.52 1.953.349.377.961.675 1.849.89l.816.217.479-5.66"></path>
            <path fill="#F5D340" d="M206 526c0 11.046 8.955 20 20 20s20-8.954 20-20c0-11.043-8.955-20-20-20s-20 8.957-20 20"></path>
            <path fill="#EEA22D" d="M226 544.463c10.178 0 18.46-8.282 18.46-18.462 0-10.179-8.282-18.46-18.46-18.46s-18.46 8.281-18.46 18.46c0 10.18 8.282 18.462 18.46 18.462M226 506c11.045 0 20 8.957 20 20 0 11.046-8.955 20-20 20s-20-8.954-20-20c0-11.043 8.955-20 20-20"></path>
            <path fill="#EEA22D" d="M225.5 542c8.548 0 15.5-6.954 15.5-15.5s-6.952-15.5-15.5-15.5-15.5 6.954-15.5 15.5 6.952 15.5 15.5 15.5"></path>
            <path fill="#F4CC79" d="M225.09 539h-1.438l.253-3.086a36.959 36.959 0 0 1-4.654-.517l.199-2.085c2.406.054 3.964.09 4.68.108l.508-6.12-1.777-.46c-1.39-.361-2.383-.972-2.973-1.83-.593-.854-.888-2.016-.888-3.479 0-1.066.115-1.928.351-2.588a2.752 2.752 0 0 1 1.227-1.503 5.485 5.485 0 0 1 1.945-.679c.713-.107 1.674-.16 2.875-.16h.31l.2-2.601h1.408l-.197 2.654c1.58.057 2.962.23 4.144.517l-.168 1.975a96.389 96.389 0 0 0-4.173-.107l-.478 6.013 1.605.434c1.448.377 2.468.993 3.062 1.84.59.85.889 2.007.889 3.468 0 2.078-.49 3.454-1.468 4.129-.978.678-2.709 1.019-5.188 1.019l-.255 3.058m.932-11.321l-.479 5.741c1.407 0 2.358-.171 2.845-.514.49-.342.736-1.057.736-2.142 0-.955-.171-1.617-.51-1.985-.338-.373-.939-.667-1.805-.884l-.787-.216m-.51-8.67c-1.465 0-2.441.14-2.932.421-.489.28-.731 1.007-.731 2.181 0 .921.175 1.57.52 1.951.347.379.961.675 1.847.892l.818.217.477-5.662"></path>
            <path fill="#2D2E2C" d="M286 374a4 4 0 1 0 8 0 4 4 0 1 0-8 0"></path>
        </g>
    </g>
</svg>