<?xml version="1.0" encoding="UTF-8"?>
<svg width="120px" height="120px" viewBox="0 0 120 120" version="1.1" xmlns="http://www.w3.org/2000/svg" xmlns:xlink="http://www.w3.org/1999/xlink">
    <title>icon2</title>
    <defs>
        <circle id="path-1" cx="59.0677565" cy="59.0677565" r="49.0677565"></circle>
    </defs>
    <g id="Page-1" stroke="none" stroke-width="1" fill="none" fill-rule="evenodd">
        <g id="Desktop-HD-Copy" transform="translate(-394.000000, -257.000000)">
            <g id="icon2" transform="translate(394.000000, 257.000000)">
                <g id="Path" transform="translate(0.434783, 0.434783)">
                    <mask id="mask-2" fill="white">
                        <use xlink:href="#path-1"></use>
                    </mask>
                    <use id="Mask" fill="#1CB3A0" fill-rule="nonzero" transform="translate(59.067756, 59.067756) rotate(-76.714204) translate(-59.067756, -59.067756) " xlink:href="#path-1"></use>
                    <path d="M107.604315,67.3330891 L82.5652174,42.7987863 C82.226087,42.4335689 73.7700935,39.5652174 73.3005283,39.5652174 L40.8951132,39.8489373 C40.4516349,39.8489373 39.9820697,40.031546 39.6168523,40.3706765 C39.2516349,40.7358939 36.5652174,42.3292211 36.5652174,42.7987863 L44.4028552,53.1700414 L54.1009161,68.28372 C53.7704813,79.4221096 53.7704813,85.1826087 54.1009161,85.5652174 L72.5987645,107.831546 C96.1291993,105.927198 109.638191,99.631254 112.064278,76.257341 L107.604315,67.3330891 Z" fill="#119A88" fill-rule="nonzero" mask="url(#mask-2)"></path>
                </g>
                <path d="M83,44.4725087 C83,40.2227465 71.4291631,38 60,38 C48.5708369,38 37,40.2221377 37,44.4725087 C37,45.4359423 37.5997626,46.2940527 38.6521533,47.0465355 L54.4786652,68.8140482 L54.4786652,85.0179978 L54.5356987,86 L55.4558201,86 L55.876291,85.9835623 C57.8490266,85.1773152 59.7382466,84.178972 61.5168502,83.0028538 C62.9937911,81.9467391 64.3383365,80.7156663 65.5213348,79.3363266 L65.5213348,68.8140482 L81.3481501,47.0465355 C82.4002374,46.2940527 83,45.4359423 83,44.4725087 Z M60,40 C72.8191828,40 81,42.6648889 81,44.5001481 C81,46.3354074 72.8191828,49 60,49 C47.1808172,49 39,46.3351111 39,44.5001481 C39,42.6651852 47.1808172,40 60,40 Z" id="Forma_1" fill="#FFFFFF"></path>
                <circle id="Oval" fill="#F5D340" cx="65" cy="38" r="6"></circle>
                <circle id="Oval-Copy" fill="#F5D340" cx="50" cy="32" r="3"></circle>
            </g>
        </g>
    </g>
</svg>