<?xml version="1.0" encoding="UTF-8"?>
<svg width="120px" height="120px" viewBox="0 0 120 120" version="1.1" xmlns="http://www.w3.org/2000/svg" xmlns:xlink="http://www.w3.org/1999/xlink">
    <title>icon1</title>
    <g id="Page-1" stroke="none" stroke-width="1" fill="none" fill-rule="evenodd">
        <g id="Desktop-HD-Copy" transform="translate(-230.000000, -257.000000)" fill-rule="nonzero">
            <g id="icon1" transform="translate(230.000000, 257.000000)">
                <circle id="Oval" fill="#1CB3A0" transform="translate(60.002560, 60.002560) rotate(-76.714204) translate(-60.002560, -60.002560) " cx="60.0025604" cy="60.0025604" r="49.4800906"></circle>
                <path d="M109.170953,65.4725401 L85.3638646,41.6654521 L85.1271091,41.4286965 C84.3379238,40.7447359 83.154146,40.4290619 81.6810002,40.4290619 C81.2337952,40.4290619 80.7602841,40.455368 80.2604667,40.5079804 L73.6576169,33.9051305 C72.9736564,33.22117 72.0266341,32.8002712 70.9743871,32.8002712 L49.0087313,32.8002712 C46.9305435,32.8002712 45.2206421,34.5101726 45.2206421,36.5883604 L45.2206421,39.0874469 L45.2206421,41.9285138 C44.6419063,41.7180644 44.0894766,41.5339212 43.5370469,41.3760841 L43.1687605,42.6124743 L45.2206421,44.664356 L45.2206421,44.9800301 L41.0116542,40.7710421 C40.0383257,40.5868989 39.1439158,40.4816742 38.3810367,40.4816742 L38.3810367,41.7706768 L45.2469483,48.6365883 L45.2469483,50.6358576 L35.5925822,40.9814915 C35.0927649,41.2445533 34.6718661,41.5865335 34.3824982,42.0074323 C34.2772735,42.1389632 34.1983549,42.2968003 34.1194364,42.4546373 C34.0931302,42.5072496 34.0931302,42.5335558 34.0668241,42.5861682 C34.0142117,42.7440052 33.9615994,42.8755361 33.908987,43.0333731 L33.908987,43.0596793 C33.8563747,43.2175164 33.8563747,43.4016596 33.8300685,43.5858028 L33.8300685,43.7436399 L33.8300685,44.2434572 L33.8300685,44.2960695 C33.8300685,44.4802127 33.8826808,44.6906621 33.908987,44.8748054 C33.908987,44.9274177 33.9352932,44.9800301 33.9352932,45.0326424 C33.9615994,45.2167856 34.0142117,45.4009289 34.0668241,45.5850721 C34.0668241,45.6113783 34.0668241,45.6376844 34.0931302,45.6639906 C34.1457426,45.87444 34.2246611,46.0848894 34.3035796,46.321645 C34.3298858,46.3742573 34.356192,46.4268697 34.3824982,46.5057882 C34.4614167,46.6899314 34.5403352,46.9003808 34.6455599,47.1108302 C34.6718661,47.1371364 34.6718661,47.1897487 34.6981723,47.2160549 C34.803397,47.4528105 34.9349278,47.6895661 35.0664587,47.9263216 C35.0927649,47.978934 35.1190711,48.0315463 35.1716834,48.1104648 C35.2769081,48.3209142 35.408439,48.5313636 35.5399699,48.7681192 C35.566276,48.7944254 35.5925822,48.8470377 35.5925822,48.8733439 C35.7504192,49.1364057 35.9082563,49.3731612 36.0923995,49.636223 C36.1187057,49.6888353 36.171318,49.7414477 36.1976242,49.79406 C36.3554613,50.0308156 36.5132983,50.2675712 36.6974415,50.5043267 C36.7237477,50.5306329 36.7500539,50.5832453 36.7763601,50.6095514 C36.9605033,50.8726132 37.1709527,51.1619811 37.3814021,51.4250429 C37.4077083,51.4776552 37.4603206,51.5302676 37.4866268,51.5565737 C37.6970762,51.8196355 37.8812194,52.056391 38.0916688,52.3194528 C38.117975,52.345759 38.1442811,52.3983713 38.1705873,52.4246775 C38.4073429,52.7140454 38.6440985,53.0034133 38.9071602,53.2927813 C38.9334664,53.3190874 38.9597726,53.3716998 39.0123849,53.3980059 C39.2491405,53.6610677 39.485896,53.9504356 39.7489578,54.2134974 L39.8015701,54.2661097 C39.8015701,54.2661097 39.8278763,54.2924159 39.8278763,54.2924159 C40.0909381,54.5817838 40.3539998,54.8711517 40.6170616,55.1605197 L40.6959801,55.2394382 L40.7485924,55.2920505 C41.4062468,55.9760111 42.0902073,56.6599716 42.8004741,57.3439321 L45.2995606,59.8430187 L45.2995606,60.3165299 C37.4077083,67.3139723 32.0412486,74.495558 34.4614167,77.9153607 C34.5403352,78.0205854 34.5929476,78.0995039 34.6718661,78.1784225 C34.7244784,78.2310348 34.7770908,78.3099533 34.8560093,78.3625657 L65.6342336,109.14079 C88.4416871,106.536479 106.619254,88.3589121 109.170953,65.4725401 L109.170953,65.4725401 Z" id="Path" fill="#119A88"></path>
                <path d="M35.4347452,77.1261755 L34.3824982,77.8627484 C34.6718661,78.2836472 35.0927649,78.6256274 35.5925822,78.8886892 L36.1450119,77.7312175 C35.8556439,77.5733804 35.6188884,77.3892372 35.4347452,77.1261755 L35.4347452,77.1261755 Z" id="Path" fill="#343B43"></path>
                <path d="M85.6795387,46.2690326 C85.416477,47.0056055 85.0218844,47.7947908 84.4957609,48.6628945 L83.3909015,48.0052401 C83.8644127,47.2160549 84.2326991,46.479482 84.4694547,45.8218277 L85.6795387,46.2690326 Z M83.0489213,50.8200008 C82.5754101,51.4776552 82.0229804,52.1616157 81.4442446,52.8455763 L80.4709161,52.0300849 C81.049652,51.3724305 81.5494693,50.68847 82.0229804,50.0571218 L83.0489213,50.8200008 Z M79.7343433,54.765927 C79.1819136,55.370969 78.5768716,55.9760111 77.9455234,56.6073593 L77.0511134,55.7129493 C77.6561555,55.1079073 78.2611975,54.5028653 78.8136271,53.8978233 L79.7343433,54.765927 Z M76.1040912,58.3961791 C75.4990491,58.974915 74.8677009,59.5273446 74.1837404,60.1060805 L73.3419428,59.132752 C73.9995972,58.5803224 74.6309454,58.0015865 75.2096812,57.4491568 L76.1040912,58.3961791 Z M72.2370835,61.7633695 C71.5794291,62.289493 70.9217747,62.8419226 70.2378142,63.3680461 L69.448629,62.3684115 C70.1325895,61.842288 70.7639377,61.3161645 71.4215921,60.7637349 L72.2370835,61.7633695 Z M68.2122388,64.9464166 C67.5282782,65.4462339 66.8443177,65.9723574 66.134051,66.4721747 L65.3974781,65.4199278 L67.4493597,63.9204758 L68.2122388,64.9464166 Z M64.0558632,67.9453205 C63.3455965,68.4188317 62.6353297,68.918649 61.925063,69.365854 L61.2147963,68.2873008 C61.925063,67.8400958 62.6090236,67.3665847 63.3192903,66.8930735 L64.0558632,67.9453205 Z M59.7416505,70.733775 C59.0050776,71.18098 58.2685047,71.628185 57.558238,72.0490838 L56.9005837,70.9442244 C57.6108504,70.5233256 58.3474233,70.1024268 59.05769,69.6289157 L59.7416505,70.733775 Z M55.3222132,73.3117802 C54.5593341,73.7326789 53.7964551,74.1272716 53.0598822,74.5218642 L52.4811463,73.3906987 C53.2177192,73.0224122 53.9542921,72.6278196 54.7171712,72.2069208 L55.3222132,73.3117802 Z M50.7449388,75.6530297 C49.9557536,76.0213161 49.1665683,76.3896026 48.4036893,76.7052767 L47.9038719,75.5214988 C48.6404448,75.2058247 49.4296301,74.8638445 50.2188153,74.495558 L50.7449388,75.6530297 Z M46.0098274,77.652299 C45.1680298,77.9679731 44.3262322,78.2310348 43.5633531,78.4677904 L43.1950667,77.2314002 C43.9579457,77.0209508 44.747131,76.7315829 45.5626224,76.4422149 L46.0098274,77.652299 Z M41.0116542,79.0991386 C40.0383257,79.2832818 39.1439158,79.3885065 38.3810367,79.3885065 L38.3810367,78.0995039 C39.0913034,78.0995039 39.9067948,77.9942792 40.8012048,77.8364422 L41.0116542,79.0991386 Z" id="Shape" fill="#343B43"></path>
                <path d="M85.6269264,41.9811262 L84.5746794,42.717699 C84.7588226,42.9544546 84.8377411,43.2701287 84.8903535,43.612109 L86.1530499,43.4805781 C86.1004375,42.9018423 85.9162943,42.4020249 85.6269264,41.9811262 L85.6269264,41.9811262 Z" id="Path" fill="#343B43"></path>
                <path d="M34.3824982,41.9811262 C31.0679202,46.7162376 42.4848,58.5014038 54.9013144,67.1824415 C67.3178288,75.8634791 82.2860422,82.5715536 85.6006202,77.8364422 L84.5483732,77.0998693 C82.4964916,80.0461609 70.1062833,76.2580717 55.6115811,66.1301945 C41.1431851,56.0023172 33.3565574,45.6376844 35.408439,42.6913929 L34.3824982,41.9811262 Z" id="Path" fill="#343B43"></path>
                <path d="M70.9743871,32.8002712 L49.0087313,32.8002712 C46.9305435,32.8002712 45.2206421,34.5101726 45.2206421,36.5883604 L45.2206421,83.2818203 C45.2206421,85.3600081 46.9305435,87.0699095 49.0087313,87.0699095 L70.9743871,87.0699095 C73.0525749,87.0699095 74.7624762,85.3600081 74.7624762,83.2818203 L74.7624762,36.5883604 C74.7624762,34.4838664 73.0788811,32.8002712 70.9743871,32.8002712 Z" id="Path" fill="#FFFFFF"></path>
                <polygon id="Path" fill="#F5D340" points="47.3777484 41.0077977 72.6316761 41.0077977 72.6316761 78.8886892 47.3777484 78.8886892"></polygon>
                <path d="M57.6897689,83.8605562 C57.2688701,83.8605562 56.9268898,83.5185759 56.9268898,83.0976771 L56.9268898,82.8609216 C56.9268898,82.4400228 57.2688701,82.0980425 57.6897689,82.0980425 L62.2933495,82.0980425 C62.7142483,82.0980425 63.0562285,82.4400228 63.0562285,82.8609216 L63.0562285,83.0976771 C63.0562285,83.5185759 62.7142483,83.8605562 62.2933495,83.8605562 L57.6897689,83.8605562 Z" id="Path" fill="#495057"></path>
                <path d="M61.0569593,36.9040344 C61.0569593,37.4827703 60.5834481,37.9562814 60.0047123,37.9562814 C59.4259764,37.9562814 58.9524653,37.4827703 58.9524653,36.9040344 C58.9524653,36.3252986 59.4259764,35.8517875 60.0047123,35.8517875 C60.5834481,35.8517875 61.0569593,36.3252986 61.0569593,36.9040344 Z" id="Path" fill="#495057"></path>
                <path d="M60.3729987,36.9040344 C60.3729987,37.1144838 60.2151617,37.2723209 60.0047123,37.2723209 C59.7942629,37.2723209 59.6101197,37.1144838 59.6101197,36.9040344 C59.6101197,36.6935851 59.7942629,36.5094418 60.0047123,36.5094418 C60.2151617,36.5094418 60.3729987,36.6935851 60.3729987,36.9040344 Z" id="Path" fill="#343B43"></path>
                <path d="M81.6810002,40.4290619 C75.5779677,40.4290619 64.476762,45.9533585 54.9013144,52.6614331 C42.4848,61.3687769 31.0679202,73.1539431 34.3824982,77.8627484 L35.4347452,77.1261755 C33.3565574,74.1798839 41.1694912,63.8415573 55.6378873,53.6873739 C70.1062833,43.5594966 82.4964916,39.7714075 84.5746794,42.717699 L85.6269264,41.9811262 C84.8640473,40.902573 83.4961262,40.4290619 81.6810002,40.4290619 L81.6810002,40.4290619 Z" id="Path" fill="#343B43"></path>
                <path d="M84.8903535,76.2317655 C84.8640473,76.5737458 84.7588226,76.8894199 84.5746794,77.1261755 L85.6269264,77.8627484 C85.9162943,77.4418496 86.1004375,76.9420323 86.179356,76.3632964 L84.8903535,76.2317655 Z" id="Path" fill="#343B43"></path>
                <path d="M41.0116542,40.7447359 L40.7748986,42.0074323 C39.8804887,41.8232891 39.0649973,41.7443706 38.3547305,41.7443706 L38.3547305,40.455368 C39.170222,40.4816742 40.0646319,40.5605927 41.0116542,40.7447359 Z M46.0098274,42.1915756 L45.5626224,43.4016596 C44.747131,43.1122917 43.9316396,42.8229237 43.1950667,42.6124743 L43.5633531,41.3760841 C44.3262322,41.6128397 45.1680298,41.8759015 46.0098274,42.1915756 L46.0098274,42.1915756 Z M50.7449388,44.1908448 L50.1925091,45.3483165 C49.4033239,44.9800301 48.6404448,44.6380498 47.8775658,44.3223757 L48.3773831,43.1385978 C49.1665683,43.4805781 49.9557536,43.8225584 50.7449388,44.1908448 Z M55.3222132,46.5320944 L54.7171712,47.6369537 C53.9542921,47.2160549 53.2177192,46.8214623 52.4811463,46.4531758 L53.0598822,45.3220103 C53.7964551,45.716603 54.5593341,46.1111956 55.3222132,46.5320944 Z M59.7416505,49.1364057 L59.05769,50.2149588 C58.3211171,49.7677538 57.6108504,49.3205489 56.9005837,48.8996501 L57.558238,47.7947908 C58.2948109,48.2419957 59.0050776,48.6628945 59.7416505,49.1364057 Z M64.0558632,51.9248602 L63.3455965,52.9771072 C62.6353297,52.503596 61.925063,52.0300849 61.2411025,51.5828799 L61.925063,50.5043267 C62.6353297,50.9515317 63.3455965,51.4250429 64.0558632,51.9248602 Z M68.2122388,54.8974579 L67.4493597,55.9233987 C66.7917053,55.4235814 66.1077448,54.9237641 65.3974781,54.4239468 L66.134051,53.3980059 C66.8443177,53.8978233 67.5282782,54.3976406 68.2122388,54.8974579 Z M72.2370835,58.080505 L71.4215921,59.0538335 C70.7902439,58.52771 70.1325895,58.0015865 69.448629,57.4491568 L70.2378142,56.4495222 C70.9217747,57.0019519 71.5794291,57.5543815 72.2370835,58.080505 Z M76.1040912,61.4740016 L75.2359874,62.4210239 C74.6309454,61.8685942 73.9995972,61.2898583 73.368249,60.7374287 L74.2100466,59.7641002 C74.8413948,60.3165299 75.472743,60.8952657 76.1040912,61.4740016 L76.1040912,61.4740016 Z M79.7343433,65.0779475 L78.787321,65.9460513 C78.2348913,65.3410092 77.6298493,64.7359672 77.0248073,64.1309252 L77.9192172,63.2365153 C78.5768716,63.8678635 79.1819136,64.4729055 79.7343433,65.0779475 L79.7343433,65.0779475 Z M83.0489213,69.0501799 L82.0229804,69.8130589 C81.5494693,69.1817107 81.0233458,68.5240564 80.4709161,67.8400958 L81.4442446,67.0246044 C82.0492866,67.708565 82.5754101,68.3925255 83.0489213,69.0501799 L83.0489213,69.0501799 Z M85.6795387,73.6011481 L84.4957609,74.048353 C84.2590053,73.3906987 83.8907188,72.6541258 83.4172077,71.8649405 L84.522067,71.2072862 C85.0218844,72.0490838 85.416477,72.8645752 85.6795387,73.6011481 L85.6795387,73.6011481 Z" id="Shape" fill="#343B43"></path>
                <path d="M35.5925822,40.9814915 C35.0927649,41.2445533 34.6718661,41.5602274 34.3824982,42.0074323 L35.4347452,42.7440052 C35.6188884,42.5072496 35.8556439,42.2968003 36.171318,42.1389632 L35.5925822,40.9814915 Z" id="Path" fill="#343B43"></path>
                <path d="M68.6331376,64.393987 C68.6331376,69.1554046 64.7661299,73.0224122 60.0047123,73.0224122 C55.2432947,73.0224122 51.376287,69.1554046 51.376287,64.393987 C51.376287,59.6325693 55.2432947,55.7655617 60.0047123,55.7655617 C64.7661299,55.7918678 68.6331376,59.6325693 68.6331376,64.393987 Z" id="Path" fill="#FFFFFF"></path>
                <path d="M57.5845442,64.393987 C57.5845442,64.9727228 57.1110331,65.4199278 56.5586034,65.4199278 C55.9798676,65.4199278 55.5326626,64.9727228 55.5326626,64.393987 C55.5326626,63.8152511 55.9798676,63.3680461 56.5586034,63.3680461 C57.1373392,63.3680461 57.5845442,63.8415573 57.5845442,64.393987 Z" id="Path" fill="#343B43"></path>
                <path d="M61.0306531,64.393987 C61.0306531,64.9727228 60.5834481,65.4199278 60.0047123,65.4199278 C59.4259764,65.4199278 58.9787715,64.9727228 58.9787715,64.393987 C58.9787715,63.8152511 59.4259764,63.3680461 60.0047123,63.3680461 C60.5571419,63.3680461 61.0306531,63.8415573 61.0306531,64.393987 Z" id="Path" fill="#343B43"></path>
                <path d="M64.476762,64.393987 C64.476762,64.9727228 64.029557,65.4199278 63.4508211,65.4199278 C62.8720853,65.4199278 62.4248803,64.9727228 62.4248803,64.393987 C62.4248803,63.8152511 62.8720853,63.3680461 63.4508211,63.3680461 C64.0032508,63.3680461 64.476762,63.8415573 64.476762,64.393987 Z" id="Path" fill="#343B43"></path>
            </g>
        </g>
    </g>
</svg>