<?xml version="1.0" encoding="UTF-8"?>
<svg width="119px" height="119px" viewBox="0 0 119 119" version="1.1" xmlns="http://www.w3.org/2000/svg" xmlns:xlink="http://www.w3.org/1999/xlink">
    <title>icon3</title>
    <g id="Page-1" stroke="none" stroke-width="1" fill="none" fill-rule="evenodd">
        <g id="Desktop-HD-Copy" transform="translate(-557.000000, -257.000000)" fill-rule="nonzero">
            <g id="icon3" transform="translate(557.000000, 257.000000)">
                <circle id="Oval" fill="#1CB3A0" transform="translate(59.502539, 59.502539) rotate(-76.714204) translate(-59.502539, -59.502539) " cx="59.5025391" cy="59.5025391" r="49.0677565"></circle>
                <path d="M108.299412,64.5185026 L84.5863687,40.8054591 C84.2472382,40.4402417 83.777673,40.28372 83.3081078,40.28372 L35.6472382,40.28372 C35.20376,40.28372 34.7341947,40.4663287 34.3689773,40.8054591 C34.00376,41.1706765 33.8472382,41.6141547 33.8472382,42.08372 L33.8472382,72.0054591 L53.0211513,72.0054591 L29.3863687,72.0054591 L29.3863687,72.8924156 C29.3863687,73.6228504 29.6472382,74.3271982 30.1428904,74.9011113 L63.5081078,108.266329 C87.0385426,106.361981 105.873325,87.8924156 108.299412,64.5185026 L108.299412,64.5185026 Z" id="Path" fill="#119A88"></path>
                <path d="M33.8472382,72.031546 L33.8472382,42.1098069 C33.8472382,41.6402417 34.0298469,41.1706765 34.3689773,40.831546 C34.7081078,40.4924156 35.177673,40.3098069 35.6472382,40.3098069 L83.3081078,40.3098069 C83.777673,40.3098069 84.2211513,40.4924156 84.5863687,40.831546 C84.951586,41.1967634 85.1081078,41.6402417 85.1081078,42.1098069 L85.1081078,72.031546 L33.8472382,72.031546 Z" id="Path" fill="#343B43"></path>
                <path d="M89.5689773,72.9185026 C89.5689773,73.6750243 89.2820208,74.457633 88.6820208,75.057633 C88.0820208,75.657633 87.3254991,75.9445895 86.5428904,75.9445895 L32.4124556,75.9445895 C31.6559339,75.9445895 30.8733252,75.657633 30.2733252,75.057633 C29.6733252,74.457633 29.3863687,73.7011113 29.3863687,72.9185026 L29.3863687,72.031546 L89.5428904,72.031546 L89.5428904,72.9185026 L89.5689773,72.9185026 Z" id="Path" fill="#FFFFFF"></path>
                <path d="M65.9341947,72.2924156 C65.9341947,72.5793721 65.8298469,72.8663287 65.5950643,73.1011113 C65.3863687,73.3098069 65.0994121,73.4141547 64.8124556,73.4141547 L54.1689773,73.4141547 C53.8820208,73.4141547 53.5950643,73.3098069 53.3863687,73.1011113 C53.177673,72.8924156 53.0472382,72.6054591 53.0472382,72.2924156 L53.0472382,72.0054591 L65.9341947,72.0054591 L65.9341947,72.2924156 Z" id="Path" fill="#CCCBCA"></path>
                <polygon id="Path" fill="#FFFFFF" points="37.1602817 43.5967634 81.7950643 43.5967634 81.7950643 68.6924156 37.1602817 68.6924156"></polygon>
                <path d="M87.2211513,47.2750243 L73.551586,47.2750243 C72.2472382,47.2750243 71.20376,48.3445895 71.20376,49.6228504 L71.20376,78.68372 C71.20376,79.9880678 72.2733252,81.031546 73.551586,81.031546 L87.2211513,81.031546 C88.5254991,81.031546 89.5689773,79.9619808 89.5689773,78.68372 L89.5689773,49.6228504 C89.5689773,48.3185026 88.4994121,47.2750243 87.2211513,47.2750243 Z" id="Path" fill="#343B43"></path>
                <polygon id="Path" fill="#FFFFFF" points="72.5081078 52.3880678 88.2124556 52.3880678 88.2124556 75.9445895 72.5081078 75.9445895"></polygon>
                <path d="M78.9254991,79.0489373 C78.6646295,79.0489373 78.4559339,78.8402417 78.4559339,78.5793721 L78.4559339,78.4228504 C78.4559339,78.1619808 78.6646295,77.9532852 78.9254991,77.9532852 L81.7950643,77.9532852 C82.0559339,77.9532852 82.2646295,78.1619808 82.2646295,78.4228504 L82.2646295,78.5793721 C82.2646295,78.8402417 82.0559339,79.0489373 81.7950643,79.0489373 L78.9254991,79.0489373 Z" id="Path" fill="#495057"></path>
                <path d="M81.0385426,49.831546 C81.0385426,50.1967634 80.751586,50.48372 80.3863687,50.48372 C80.0211513,50.48372 79.7341947,50.1967634 79.7341947,49.831546 C79.7341947,49.4663287 80.0211513,49.1793721 80.3863687,49.1793721 C80.7254991,49.1793721 81.0385426,49.4663287 81.0385426,49.831546 Z" id="Path" fill="#495057"></path>
                <path d="M80.6211513,49.831546 C80.6211513,49.9619808 80.5168034,50.0663287 80.3863687,50.0663287 C80.2559339,50.0663287 80.151586,49.9619808 80.151586,49.831546 C80.151586,49.7011113 80.2559339,49.5967634 80.3863687,49.5967634 C80.5168034,49.5967634 80.6211513,49.7011113 80.6211513,49.831546 Z" id="Path" fill="#343B43"></path>
                <polygon id="Path" fill="#F5D340" points="61.3689773 62.0663287 75.8472382 62.0663287 75.8472382 66.2924156 61.3689773 66.2924156"></polygon>
                <polygon id="Path" fill="#F5D340" points="75.8472382 59.6663287 75.8472382 68.7185026 80.3863687 64.1793721"></polygon>
            </g>
        </g>
    </g>
</svg>