<svg preserveAspectRatio="xMidYMid meet" id="comp-keietzp7svgcontent" data-bbox="10.424 10.424 98.159 98.159" xmlns="http://www.w3.org/2000/svg" viewBox="10.424 10.424 98.159 98.159" height="119" width="119" data-type="color" role="img" aria-labelledby="comp-keietzp7-svgtitle"><title id="comp-keietzp7-svgtitle"></title>
    <g>
        <path fill="#1CB3A0" d="M70.78 11.748c26.374 6.228 42.706 32.657 36.478 59.031-6.228 26.375-32.657 42.707-59.031 36.479C21.852 101.03 5.52 74.6 11.748 48.227 17.976 21.852 44.405 5.52 70.78 11.748z" data-color="1"></path>
        <path fill="#119A88" d="M108.3 64.519L84.585 40.805c-.339-.365-.808-.521-1.278-.521h-47.66c-.444 0-.914.182-1.279.521a1.753 1.753 0 0 0-.522 1.279v29.921H53.02 29.385v.887c0 .73.261 1.435.757 2.01l33.365 33.364c23.53-1.904 42.365-20.374 44.791-43.747z" data-color="2"></path>
        <path fill="#343B43" d="M33.847 72.032V42.11c0-.47.183-.94.522-1.278.34-.34.809-.522 1.278-.522h47.661c.47 0 .913.182 1.278.522.366.365.522.808.522 1.278v29.922h-51.26z" data-color="3"></path>
        <path fill="#FFFFFF" d="M89.569 72.919c0 .756-.287 1.539-.887 2.139-.6.6-1.357.887-2.14.887h-54.13a3.024 3.024 0 0 1-2.139-.887 2.98 2.98 0 0 1-.887-2.14v-.886h60.157v.887h.026z" data-color="4"></path>
        <path fill="#CCCBCA" d="M65.934 72.292c0 .287-.104.574-.339.81a1.105 1.105 0 0 1-.783.312H54.17c-.287 0-.574-.104-.783-.313a1.145 1.145 0 0 1-.339-.809v-.287h12.887v.287z" data-color="5"></path>
        <path fill="#FFFFFF" d="M37.16 43.597h44.635v25.095H37.16V43.597z" data-color="4"></path>
        <path fill="#343B43" d="M87.221 47.275h-13.67a2.355 2.355 0 0 0-2.347 2.348v29.06a2.355 2.355 0 0 0 2.348 2.349h13.67a2.355 2.355 0 0 0 2.347-2.348V49.623a2.355 2.355 0 0 0-2.348-2.348z" data-color="3"></path>
        <path fill="#FFFFFF" d="M72.508 52.388h15.704v23.557H72.508V52.388z" data-color="4"></path>
        <path fill="#495057" d="M78.925 79.049a.468.468 0 0 1-.47-.47v-.156c0-.261.21-.47.47-.47h2.87c.26 0 .47.209.47.47v.156c0 .261-.21.47-.47.47h-2.87z" data-color="6"></path>
        <path fill="#495057" d="M81.039 49.832a.646.646 0 0 1-.653.652.646.646 0 0 1-.652-.652c0-.366.287-.653.652-.653.34 0 .653.287.653.653z" data-color="6"></path>
        <path fill="#343B43" d="M80.621 49.832c0 .13-.104.234-.235.234a.234.234 0 0 1-.234-.234.234.234 0 1 1 .469 0z" data-color="3"></path>
        <path fill="#F5D340" d="M61.369 62.066h14.478v4.226H61.37v-4.226z" data-color="7"></path>
        <path fill="#F5D340" d="M75.847 59.666v9.053l4.54-4.54-4.54-4.513z" data-color="7"></path>
    </g>
</svg>