<svg preserveAspectRatio="xMidYMid meet" id="comp-keieo89rsvgcontent" data-bbox="10.512 10.512 98.983 98.983" xmlns="http://www.w3.org/2000/svg" viewBox="10.512 10.512 98.983 98.983" height="120" width="120" data-type="color" role="img">
    <g>
        <path fill="#1CB3A0" d="M71.374 11.847c26.596 6.28 43.065 32.932 36.785 59.527-6.28 26.596-32.932 43.065-59.527 36.785-26.596-6.28-43.065-32.932-36.785-59.527 6.28-26.596 32.932-43.065 59.527-36.785z" data-color="1"></path>
        <path fill="#119A88" d="M109.171 65.473L85.364 41.665l-.237-.236c-.79-.684-1.973-1-3.446-1-.447 0-.92.026-1.42.079l-6.603-6.603a3.776 3.776 0 0 0-2.684-1.105H49.01a3.806 3.806 0 0 0-3.788 3.788v5.34a25.044 25.044 0 0 0-1.684-.552l-.368 1.236 2.052 2.052v.316l-4.21-4.209c-.973-.184-1.867-.29-2.63-.29v1.29l6.866 6.866v1.999l-9.654-9.655c-.5.264-.921.606-1.21 1.026-.106.132-.185.29-.264.448-.026.052-.026.079-.052.131-.053.158-.105.29-.158.447v.027c-.053.158-.053.342-.079.526v.71c0 .184.053.395.079.579 0 .052.026.105.026.158.027.184.08.368.132.552 0 .026 0 .053.026.079.053.21.132.42.21.658.027.052.053.105.08.184.078.184.157.394.263.605.026.026.026.079.052.105.105.237.237.474.368.71.027.053.053.106.106.184.105.21.236.421.368.658a.2.2 0 0 1 .053.105c.157.263.315.5.5.763.026.053.078.105.105.158.157.237.315.474.5.71.026.027.052.08.078.106.185.263.395.552.605.815a.574.574 0 0 0 .106.132c.21.263.394.5.605.762.026.027.052.08.079.106.236.289.473.578.736.868.026.026.053.079.105.105.237.263.474.552.737.815l.053.053.026.026.79.869.078.078.053.053a75.447 75.447 0 0 0 2.051 2.052l2.5 2.499v.474C37.408 67.314 32.04 74.496 34.46 77.915c.08.106.132.185.21.263.053.053.106.132.185.185l30.778 30.778c22.808-2.605 40.985-20.782 43.537-43.668z" data-color="2"></path>
        <path fill="#343B43" d="M35.435 77.126l-1.053.737c.29.42.71.763 1.21 1.026l.553-1.158c-.29-.158-.526-.342-.71-.605z" data-color="3"></path>
        <path fill="#343B43" d="M85.68 46.269c-.264.737-.658 1.526-1.184 2.394l-1.105-.658c.473-.789.842-1.526 1.078-2.183l1.21.447zm-2.631 4.551a33.645 33.645 0 0 1-1.605 2.026l-.973-.816c.579-.658 1.078-1.342 1.552-1.973l1.026.763zm-3.315 3.946a57.376 57.376 0 0 1-1.788 1.841l-.895-.894a56.53 56.53 0 0 0 1.763-1.815l.92.868zm-3.63 3.63a41.99 41.99 0 0 1-1.92 1.71l-.842-.973a39.885 39.885 0 0 0 1.868-1.684l.894.947zm-3.867 3.367c-.658.526-1.315 1.079-2 1.605l-.788-1a58.262 58.262 0 0 0 1.973-1.604l.815 1zm-4.025 3.183c-.684.5-1.368 1.026-2.078 1.526l-.737-1.052 2.052-1.5.763 1.026zm-4.156 3c-.71.473-1.42.973-2.13 1.42l-.711-1.079c.71-.447 1.394-.92 2.104-1.394l.737 1.052zm-4.314 2.788c-.737.447-1.473.894-2.184 1.315l-.657-1.105c.71-.42 1.446-.842 2.157-1.315l.684 1.105zm-4.42 2.578c-.763.42-1.526.815-2.262 1.21l-.579-1.131a62.402 62.402 0 0 0 2.236-1.184l.605 1.105zm-4.577 2.341c-.79.368-1.578.737-2.341 1.052l-.5-1.184a79.767 79.767 0 0 0 2.315-1.025l.526 1.157zm-4.735 2c-.842.315-1.684.578-2.447.815l-.368-1.237c.763-.21 1.552-.5 2.368-.789l.447 1.21zm-4.998 1.446c-.974.184-1.868.29-2.631.29v-1.29c.71 0 1.526-.105 2.42-.263l.21 1.263z" data-color="3"></path>
        <path fill="#343B43" d="M85.627 41.981l-1.052.737c.184.236.263.552.315.894l1.263-.131a3.102 3.102 0 0 0-.526-1.5z" data-color="3"></path>
        <path fill="#343B43" d="M34.382 41.981c-3.314 4.735 8.103 16.52 20.52 25.201 12.416 8.681 27.384 15.39 30.699 10.654l-1.053-.736c-2.052 2.946-14.442-.842-28.936-10.97-14.469-10.128-22.255-20.492-20.204-23.439l-1.026-.71z" data-color="3"></path>
        <path fill="#FFFFFF" d="M70.974 32.8H49.01a3.806 3.806 0 0 0-3.788 3.788v46.694a3.806 3.806 0 0 0 3.788 3.788h21.965a3.806 3.806 0 0 0 3.788-3.788V36.588a3.772 3.772 0 0 0-3.788-3.788z" data-color="4"></path>
        <path fill="#F5D340" d="M47.378 41.008h25.254v37.88H47.378v-37.88z" data-color="5"></path>
        <path fill="#495057" d="M57.69 83.86a.763.763 0 0 1-.763-.762v-.237c0-.421.342-.763.763-.763h4.603c.421 0 .763.342.763.763v.237c0 .42-.342.763-.763.763H57.69z" data-color="6"></path>
        <path fill="#495057" d="M61.057 36.904c0 .579-.474 1.052-1.052 1.052a1.055 1.055 0 0 1-1.053-1.052c0-.579.474-1.052 1.053-1.052.578 0 1.052.473 1.052 1.052z" data-color="6"></path>
        <path fill="#343B43" d="M60.373 36.904a.36.36 0 0 1-.368.368c-.21 0-.395-.158-.395-.368s.184-.395.395-.395c.21 0 .368.185.368.395z" data-color="3"></path>
        <path fill="#343B43" d="M81.681 40.43c-6.103 0-17.204 5.523-26.78 12.231-12.416 8.708-23.833 20.493-20.519 25.202l1.053-.737c-2.078-2.946 5.734-13.284 20.203-23.439 14.468-10.128 26.858-13.916 28.937-10.97l1.052-.736c-.763-1.078-2.13-1.552-3.946-1.552z" data-color="3"></path>
        <path fill="#343B43" d="M84.89 76.232c-.026.342-.131.657-.315.894l1.052.737c.29-.421.473-.921.552-1.5l-1.289-.131z" data-color="3"></path>
        <path fill="#343B43" d="M41.012 40.745l-.237 1.262a12.09 12.09 0 0 0-2.42-.263v-1.289c.815.027 1.71.106 2.657.29zm4.998 1.447l-.447 1.21c-.816-.29-1.631-.58-2.368-.79l.368-1.236c.763.237 1.605.5 2.447.816zm4.735 1.999l-.552 1.157c-.79-.368-1.553-.71-2.315-1.026l.5-1.183c.789.342 1.578.684 2.367 1.052zm4.577 2.341l-.605 1.105c-.763-.42-1.5-.816-2.236-1.184l.579-1.131c.736.395 1.5.79 2.262 1.21zm4.42 2.604l-.684 1.079c-.737-.447-1.447-.894-2.157-1.315l.657-1.105c.737.447 1.447.868 2.184 1.341zm4.314 2.789l-.71 1.052c-.71-.473-1.42-.947-2.105-1.394l.684-1.079c.71.448 1.42.921 2.13 1.42zm4.156 2.972l-.763 1.026c-.657-.5-1.341-1-2.052-1.5l.737-1.025c.71.5 1.394 1 2.078 1.5zm4.025 3.184l-.815.973c-.632-.526-1.29-1.052-1.973-1.605l.789-1c.684.553 1.341 1.105 2 1.632zm3.867 3.393l-.868.947c-.605-.552-1.236-1.131-1.868-1.684l.842-.973a112.47 112.47 0 0 1 1.894 1.71zm3.63 3.604l-.947.868a56.09 56.09 0 0 0-1.762-1.815l.894-.894a39.445 39.445 0 0 1 1.815 1.84zm3.315 3.972l-1.026.763c-.474-.631-1-1.289-1.552-1.973l.973-.815a25.65 25.65 0 0 1 1.605 2.025zm2.63 4.551l-1.183.447c-.237-.657-.605-1.394-1.079-2.183l1.105-.658c.5.842.894 1.658 1.158 2.394z" data-color="3"></path>
        <path fill="#343B43" d="M35.593 40.981c-.5.264-.921.58-1.21 1.026l1.052.737a2.12 2.12 0 0 1 .736-.605l-.578-1.158z" data-color="3"></path>
        <path fill="#FFFFFF" d="M68.633 64.394c0 4.761-3.867 8.628-8.628 8.628-4.762 0-8.629-3.867-8.629-8.628s3.867-8.628 8.629-8.628c4.761.026 8.628 3.867 8.628 8.628z" data-color="4"></path>
        <path fill="#343B43" d="M57.585 64.394c0 .579-.474 1.026-1.026 1.026a1.01 1.01 0 0 1-1.026-1.026 1.01 1.01 0 0 1 1.026-1.026c.578 0 1.026.474 1.026 1.026z" data-color="3"></path>
        <path fill="#343B43" d="M61.03 64.394a1.01 1.01 0 0 1-1.025 1.026 1.01 1.01 0 0 1-1.026-1.026 1.01 1.01 0 0 1 1.026-1.026c.552 0 1.026.474 1.026 1.026z" data-color="3"></path>
        <path fill="#343B43" d="M64.477 64.394a1.01 1.01 0 0 1-1.026 1.026 1.01 1.01 0 0 1-1.026-1.026 1.01 1.01 0 0 1 1.026-1.026c.552 0 1.026.474 1.026 1.026z" data-color="3"></path>
    </g>
</svg>